<?xml version="1.0" encoding="UTF-8"?>
<svg xmlns="http://www.w3.org/2000/svg" width="512" height="512" viewBox="0 0 512 512">
  <rect width="512" height="512" rx="96" fill="#dbdcd5"/>
  <g transform="translate(-571.5,-210.1) scale(2.3)">
    <path fill-rule="nonzero" fill="#28201a" d="M 402.898438 236.355469 C 394.953125 245.703125 380.132812 247.710938 368.546875 249.695312 L 368.417969 249.714844 C 359.382812 251.046875 341.621094 251.1875 332.273438 251.21875 C 329.09375 251.234375 325.550781 251.175781 322.082031 250.753906 C 317.800781 250.230469 314.679688 246.433594 314.902344 242.125 L 317.480469 192.453125 C 317.71875 187.914062 321.578125 184.351562 326.117188 184.625 C 334.730469 185.144531 352.335938 189.40625 360.121094 191.15625 C 368.15625 193.25 376.234375 195.464844 383.789062 198.652344 C 390.484375 201.496094 396.941406 205.453125 401.488281 211.214844 C 407.328125 218.214844 409.140625 229.058594 402.898438 236.355469 M 431.332031 180.457031 C 430.351562 164.804688 424.949219 148.261719 410.25 140.675781 C 389.621094 130.121094 364.003906 132.488281 341.3125 132.648438 C 326.238281 133.339844 308.949219 133.132812 298.429688 145.589844 C 285.113281 161.246094 288.179688 183.199219 288.121094 202.324219 C 288.738281 218.320312 286.53125 234.886719 290.371094 250.554688 C 296.554688 272.996094 318.144531 272.613281 337.386719 272.675781 C 357.292969 272.625 377.242188 273.300781 396.753906 269.097656 C 420.519531 264.328125 430.03125 248.136719 431.503906 224.84375 L 431.515625 224.707031 C 432.464844 209.753906 432.289062 195.371094 431.332031 180.457031 "/>
  </g>
</svg>
