<?xml version="1.0"?>
<svg xmlns="http://www.w3.org/2000/svg" xmlns:xlink="http://www.w3.org/1999/xlink" viewBox="258 122 205 160">
<path fill-rule="nonzero" fill="rgb(15.699768%, 12.5%, 10.198975%)" fill-opacity="1" d="M 440.902344 198.246094 C 430.523438 201.398438 417.09375 193.867188 420.070312 181.941406 C 422.195312 173.621094 430.410156 168.625 438.777344 171.140625 C 445.996094 173.3125 453.246094 179.566406 452.3125 187.117188 C 451.398438 192.6875 446.277344 196.652344 440.972656 198.226562 Z M 440.902344 198.246094 "></path>
<path fill-rule="nonzero" fill="rgb(15.699768%, 12.5%, 10.198975%)" fill-opacity="1" d="M 423.054688 271.777344 C 425.21875 270.054688 424.203125 266.042969 424.9375 263.597656 C 425.65625 260.667969 427.671875 260.050781 428.828125 263.175781 C 429.640625 265.425781 429.777344 267.929688 431.144531 269.96875 C 433.566406 273.707031 438.179688 273.527344 440.429688 269.832031 C 441.644531 268.03125 441.804688 265.898438 442.394531 263.859375 C 443.25 260.679688 445.800781 259.984375 446.519531 263.644531 C 447.140625 266.222656 446.546875 269.726562 448.035156 271.847656 C 448.839844 272.988281 450.171875 272.636719 450.875 271.554688 C 451.394531 270.804688 451.644531 269.859375 451.761719 268.957031 C 452.125 264.933594 452.0625 260.980469 452.03125 256.941406 C 451.972656 254.492188 452.042969 252.035156 451.617188 249.617188 C 450.582031 243.148438 445.109375 241.066406 439.046875 241.074219 C 436.71875 241.046875 434.382812 241.050781 432.050781 241.132812 C 429.558594 241.207031 426.730469 241.535156 424.550781 242.652344 C 420.457031 244.65625 419.667969 249.015625 419.683594 253.210938 C 419.667969 256.746094 419.671875 260.269531 419.65625 263.738281 C 419.730469 265.972656 419.324219 269.292969 420.597656 271.203125 C 421.136719 272.011719 422.207031 272.386719 423.039062 271.792969 Z M 423.054688 271.777344 "></path>
<path fill-rule="nonzero" fill="rgb(15.699768%, 12.5%, 10.198975%)" fill-opacity="1" d="M 432.664062 160.355469 C 434.71875 155.277344 438.460938 155.265625 443.382812 155.140625 C 446.96875 155.074219 450.769531 154.894531 452.089844 151.234375 C 453.058594 148.757812 451.597656 146.070312 449.4375 144.746094 C 447.742188 143.597656 445.394531 143.027344 443.753906 142.085938 C 442.074219 141.214844 441.476562 139.625 443.519531 138.6875 C 444.820312 138.070312 446.363281 137.886719 447.800781 137.585938 C 449.8125 137.277344 452.9375 135.824219 450.699219 133.816406 C 449.09375 132.585938 446.5 132.488281 444.460938 132.394531 C 431.335938 132.417969 419.667969 130.1875 419.648438 147.554688 C 419.667969 151.984375 419.449219 156.714844 421.390625 160.800781 C 422.742188 163.792969 426.382812 166.105469 429.480469 164.425781 C 431.03125 163.617188 431.871094 162 432.601562 160.480469 Z M 432.664062 160.355469 "></path>
<path fill-rule="nonzero" fill="rgb(15.699768%, 12.5%, 10.198975%)" fill-opacity="1" d="M 449.398438 207.109375 L 449.328125 207.03125 C 446.160156 203.839844 440.28125 204.542969 436.0625 204.535156 C 429.5 204.820312 424.007812 206.367188 421.601562 212.105469 C 419.386719 217.410156 419.128906 223.910156 420.25 229.46875 C 421.140625 233.433594 423.53125 237.65625 427.742188 237.070312 C 431.472656 236.285156 429.175781 230.03125 432.503906 228.308594 C 433.453125 227.730469 434.742188 227.449219 436.203125 227.3125 C 437.289062 229.710938 438.691406 231.96875 440.398438 233.996094 C 441.488281 235.289062 442.664062 236.40625 444.066406 236.949219 C 445.835938 237.625 447.046875 236.226562 447.003906 234.476562 C 447.011719 233.238281 446.566406 231.984375 446.003906 230.878906 C 445.308594 229.621094 444.582031 228.394531 443.832031 227.183594 C 446.695312 227.109375 449.230469 226.746094 450.433594 225.21875 C 453.160156 221.472656 452.355469 210.46875 449.398438 207.109375 "></path>
<path fill-rule="nonzero" fill="rgb(15.699768%, 12.5%, 10.198975%)" fill-opacity="1" d="M 382.648438 236.355469 C 374.703125 245.703125 359.882812 247.710938 348.300781 249.695312 L 348.167969 249.714844 C 339.132812 251.046875 321.371094 251.1875 312.023438 251.21875 C 308.84375 251.234375 305.300781 251.175781 301.832031 250.753906 C 297.550781 250.230469 294.429688 246.433594 294.652344 242.125 L 297.230469 192.453125 C 297.46875 187.914062 301.328125 184.351562 305.867188 184.625 C 314.480469 185.144531 332.085938 189.40625 339.871094 191.15625 C 347.90625 193.25 355.984375 195.464844 363.539062 198.652344 C 370.234375 201.496094 376.691406 205.453125 381.238281 211.214844 C 387.078125 218.214844 388.890625 229.058594 382.648438 236.355469 M 411.082031 180.457031 C 410.101562 164.804688 404.699219 148.261719 390 140.675781 C 369.371094 130.121094 343.753906 132.488281 321.0625 132.648438 C 305.988281 133.339844 288.699219 133.132812 278.179688 145.589844 C 264.863281 161.246094 267.929688 183.199219 267.871094 202.324219 C 268.488281 218.320312 266.28125 234.886719 270.121094 250.554688 C 276.304688 272.996094 297.894531 272.613281 317.136719 272.675781 C 337.042969 272.625 356.992188 273.300781 376.503906 269.097656 C 400.269531 264.328125 409.78125 248.136719 411.253906 224.84375 L 411.265625 224.707031 C 412.214844 209.753906 412.039062 195.371094 411.082031 180.457031 "></path>
</svg>