<?xml version="1.0"?>
<svg xmlns="http://www.w3.org/2000/svg" xmlns:xlink="http://www.w3.org/1999/xlink" viewBox="244 123 231 193">
<path fill-rule="nonzero" fill="rgb(15.699768%, 12.5%, 10.198975%)" fill-opacity="1" d="M 434.945312 236.296875 C 426.621094 245.609375 411.097656 247.609375 398.964844 249.585938 L 398.828125 249.605469 C 389.363281 250.929688 370.757812 251.074219 360.964844 251.101562 C 357.636719 251.117188 353.925781 251.0625 350.292969 250.640625 C 345.808594 250.121094 342.539062 246.339844 342.773438 242.046875 L 345.476562 192.574219 C 345.722656 188.050781 349.765625 184.503906 354.519531 184.773438 C 363.542969 185.292969 381.984375 189.535156 390.136719 191.28125 C 398.554688 193.363281 407.015625 195.570312 414.929688 198.746094 C 421.9375 201.578125 428.703125 205.519531 433.464844 211.257812 C 439.582031 218.230469 441.480469 229.03125 434.945312 236.296875 M 464.726562 180.625 C 463.699219 165.035156 458.039062 148.558594 442.644531 141 C 421.035156 130.488281 394.203125 132.84375 370.433594 133.003906 C 354.644531 133.691406 336.535156 133.488281 325.519531 145.894531 C 311.570312 161.488281 314.78125 183.351562 314.71875 202.402344 C 315.371094 218.335938 313.054688 234.835938 317.078125 250.441406 C 323.554688 272.792969 346.167969 272.414062 366.324219 272.472656 C 387.171875 272.425781 408.070312 273.097656 428.507812 268.910156 C 453.402344 264.160156 463.363281 248.035156 464.90625 224.832031 L 464.917969 224.695312 C 465.914062 209.804688 465.730469 195.476562 464.726562 180.625 "></path>
<path fill-rule="nonzero" fill="rgb(15.699768%, 12.5%, 10.198975%)" fill-opacity="1" d="M 308.332031 230.050781 C 307.714844 223.632812 300.621094 219.015625 294.238281 221.652344 C 286.851562 224.601562 285.269531 237.910156 292.332031 239.503906 C 300.214844 241.28125 298.933594 242.863281 298.078125 244.289062 C 297.742188 244.851562 297.195312 245.289062 296.53125 245.433594 C 295.761719 245.601562 294.78125 245.574219 293.738281 245.351562 C 290.878906 244.734375 289.238281 241.757812 286.734375 240.519531 C 286.582031 240.445312 286.421875 240.382812 286.253906 240.339844 C 282.011719 239.300781 279.542969 246.621094 277.988281 249.851562 C 276.792969 252.480469 270.894531 268.804688 276.683594 265.363281 C 280.058594 263.3125 283.835938 250.417969 288.226562 249.972656 C 290.117188 249.777344 292.578125 250.613281 295.164062 250.585938 C 302.175781 250.683594 305.601562 244.390625 307.328125 238.394531 C 308.105469 235.738281 308.683594 232.9375 308.347656 230.183594 Z M 308.332031 230.050781 "></path>
<path fill-rule="nonzero" fill="rgb(15.699768%, 12.5%, 10.198975%)" fill-opacity="1" d="M 292.109375 219.78125 C 296.96875 225.121094 302.386719 217.375 298.164062 213.253906 C 293.421875 209.441406 288.671875 215.410156 292.027344 219.679688 Z M 292.109375 219.78125 "></path>
<path fill-rule="nonzero" fill="rgb(15.699768%, 12.5%, 10.198975%)" fill-opacity="1" d="M 275.527344 237.324219 C 288.511719 228.101562 268.636719 214.351562 259.511719 223.738281 C 257.023438 225.992188 256.683594 229.992188 256.761719 232.570312 C 256.730469 233.101562 256.667969 233.640625 256.425781 234.105469 C 255.976562 234.984375 254.976562 235.390625 254.558594 236.296875 C 253.800781 238.699219 256.394531 241.566406 257.578125 243.78125 C 259.042969 246.191406 262.597656 256.734375 263.554688 259.324219 C 264.207031 260.863281 265.945312 267.121094 268.082031 265.601562 C 271.203125 261.347656 261.011719 244.992188 264.402344 241.898438 C 266.167969 240.390625 269.269531 240.3125 272.238281 239.054688 C 273.347656 238.605469 274.425781 238.054688 275.410156 237.402344 Z M 275.527344 237.324219 "></path>
<path fill-rule="nonzero" fill="rgb(15.699768%, 12.5%, 10.198975%)" fill-opacity="1" d="M 378.847656 304.289062 C 390.550781 303.703125 402.46875 301.273438 413.636719 297.007812 C 417.910156 295.375 421.832031 293.523438 424.546875 291.027344 C 427.941406 287.875 425.636719 285.054688 421.234375 284.515625 C 418.167969 284.0625 414.617188 284.46875 411.316406 285.152344 C 396.761719 288.566406 382.804688 292.921875 368.511719 297.296875 C 364.398438 298.609375 360.257812 299.84375 356.164062 301.171875 C 352.875 302.238281 353.164062 305.574219 356.535156 305.40625 Z M 378.847656 304.289062 "></path>
<path fill-rule="nonzero" fill="rgb(15.699768%, 12.5%, 10.198975%)" fill-opacity="1" d="M 294.730469 204.140625 C 292.835938 203.597656 290.972656 204.671875 290.492188 206.46875 C 290.164062 207.722656 290.722656 208.753906 291.65625 209.398438 C 291.28125 209.671875 290.90625 209.949219 290.527344 210.222656 C 290.082031 210.5625 289.621094 210.890625 289.179688 211.234375 C 288.824219 211.507812 289.1875 212.132812 289.644531 212.023438 L 292.652344 211.308594 C 294.136719 210.957031 295.488281 210.289062 296.597656 209.332031 C 297.210938 208.894531 297.675781 208.300781 297.800781 207.582031 C 298.011719 205.957031 296.367188 204.605469 294.730469 204.140625 "></path>
</svg>